<mxfile host="Electron" agent="Mozilla/5.0 (Windows NT 10.0; Win64; x64) AppleWebKit/537.36 (KHTML, like Gecko) draw.io/26.2.15 Chrome/134.0.6998.205 Electron/35.2.1 Safari/537.36" version="26.2.15">
  <diagram name="PÃ¡gina-1" id="9K1d1XZpPEn_7gxM2Jdp">
    <mxGraphModel dx="3397" dy="2714" grid="1" gridSize="10" guides="1" tooltips="1" connect="1" arrows="1" fold="1" page="1" pageScale="1" pageWidth="827" pageHeight="1169" math="0" shadow="0">
      <root>
        <mxCell id="0" />
        <mxCell id="1" parent="0" />
        <mxCell id="d53dWlJOmNv4el6tiKO4-1" value="DOCTOR" style="rounded=1;whiteSpace=wrap;html=1;absoluteArcSize=1;arcSize=14;strokeWidth=2;" vertex="1" parent="1">
          <mxGeometry x="50" y="40" width="130" height="50" as="geometry" />
        </mxCell>
        <mxCell id="d53dWlJOmNv4el6tiKO4-2" style="edgeStyle=orthogonalEdgeStyle;rounded=0;orthogonalLoop=1;jettySize=auto;html=1;exitX=0.855;exitY=0.145;exitDx=0;exitDy=0;exitPerimeter=0;" edge="1" parent="1" source="d53dWlJOmNv4el6tiKO4-4" target="d53dWlJOmNv4el6tiKO4-5">
          <mxGeometry relative="1" as="geometry" />
        </mxCell>
        <mxCell id="d53dWlJOmNv4el6tiKO4-3" style="edgeStyle=orthogonalEdgeStyle;rounded=0;orthogonalLoop=1;jettySize=auto;html=1;exitX=0.5;exitY=1;exitDx=0;exitDy=0;exitPerimeter=0;entryX=0.5;entryY=0;entryDx=0;entryDy=0;" edge="1" parent="1" source="d53dWlJOmNv4el6tiKO4-4" target="d53dWlJOmNv4el6tiKO4-14">
          <mxGeometry relative="1" as="geometry" />
        </mxCell>
        <mxCell id="d53dWlJOmNv4el6tiKO4-4" value="RESPUESTA SOLUCION" style="strokeWidth=2;html=1;shape=mxgraph.flowchart.start_2;whiteSpace=wrap;" vertex="1" parent="1">
          <mxGeometry x="65" y="170" width="100" height="100" as="geometry" />
        </mxCell>
        <mxCell id="d53dWlJOmNv4el6tiKO4-5" value="REPORTA INCIDENCIA" style="strokeWidth=2;html=1;shape=mxgraph.flowchart.start_2;whiteSpace=wrap;" vertex="1" parent="1">
          <mxGeometry x="240" y="90" width="100" height="100" as="geometry" />
        </mxCell>
        <mxCell id="d53dWlJOmNv4el6tiKO4-6" value="CLIENTE" style="rounded=1;whiteSpace=wrap;html=1;absoluteArcSize=1;arcSize=14;strokeWidth=2;" vertex="1" parent="1">
          <mxGeometry x="510" y="100" width="130" height="50" as="geometry" />
        </mxCell>
        <mxCell id="d53dWlJOmNv4el6tiKO4-7" style="edgeStyle=orthogonalEdgeStyle;rounded=0;orthogonalLoop=1;jettySize=auto;html=1;exitX=0.5;exitY=1;exitDx=0;exitDy=0;exitPerimeter=0;entryX=0.5;entryY=0;entryDx=0;entryDy=0;" edge="1" parent="1" source="d53dWlJOmNv4el6tiKO4-8" target="d53dWlJOmNv4el6tiKO4-31">
          <mxGeometry relative="1" as="geometry" />
        </mxCell>
        <mxCell id="d53dWlJOmNv4el6tiKO4-8" value="REPORTA INCIDENCIA" style="strokeWidth=2;html=1;shape=mxgraph.flowchart.start_2;whiteSpace=wrap;" vertex="1" parent="1">
          <mxGeometry x="525" y="180" width="100" height="100" as="geometry" />
        </mxCell>
        <mxCell id="d53dWlJOmNv4el6tiKO4-44" style="edgeStyle=orthogonalEdgeStyle;rounded=0;orthogonalLoop=1;jettySize=auto;html=1;exitX=1;exitY=0.5;exitDx=0;exitDy=0;" edge="1" parent="1" source="d53dWlJOmNv4el6tiKO4-9" target="d53dWlJOmNv4el6tiKO4-43">
          <mxGeometry relative="1" as="geometry" />
        </mxCell>
        <mxCell id="d53dWlJOmNv4el6tiKO4-9" value="ALMACEN" style="rounded=1;whiteSpace=wrap;html=1;absoluteArcSize=1;arcSize=14;strokeWidth=2;" vertex="1" parent="1">
          <mxGeometry x="590" y="40" width="130" height="50" as="geometry" />
        </mxCell>
        <mxCell id="d53dWlJOmNv4el6tiKO4-10" style="edgeStyle=orthogonalEdgeStyle;rounded=0;orthogonalLoop=1;jettySize=auto;html=1;exitX=0.5;exitY=1;exitDx=0;exitDy=0;entryX=0.5;entryY=0;entryDx=0;entryDy=0;entryPerimeter=0;" edge="1" parent="1" source="d53dWlJOmNv4el6tiKO4-1" target="d53dWlJOmNv4el6tiKO4-4">
          <mxGeometry relative="1" as="geometry" />
        </mxCell>
        <mxCell id="d53dWlJOmNv4el6tiKO4-11" style="edgeStyle=orthogonalEdgeStyle;rounded=0;orthogonalLoop=1;jettySize=auto;html=1;exitX=0;exitY=0.5;exitDx=0;exitDy=0;entryX=0.5;entryY=0;entryDx=0;entryDy=0;entryPerimeter=0;" edge="1" parent="1" source="d53dWlJOmNv4el6tiKO4-9" target="d53dWlJOmNv4el6tiKO4-5">
          <mxGeometry relative="1" as="geometry" />
        </mxCell>
        <mxCell id="d53dWlJOmNv4el6tiKO4-12" style="edgeStyle=orthogonalEdgeStyle;rounded=0;orthogonalLoop=1;jettySize=auto;html=1;exitX=0.5;exitY=1;exitDx=0;exitDy=0;entryX=0.5;entryY=0;entryDx=0;entryDy=0;entryPerimeter=0;" edge="1" parent="1" source="d53dWlJOmNv4el6tiKO4-6" target="d53dWlJOmNv4el6tiKO4-8">
          <mxGeometry relative="1" as="geometry" />
        </mxCell>
        <mxCell id="d53dWlJOmNv4el6tiKO4-13" style="edgeStyle=orthogonalEdgeStyle;rounded=0;orthogonalLoop=1;jettySize=auto;html=1;exitX=0.145;exitY=0.145;exitDx=0;exitDy=0;exitPerimeter=0;entryX=1;entryY=0.5;entryDx=0;entryDy=0;entryPerimeter=0;" edge="1" parent="1" source="d53dWlJOmNv4el6tiKO4-5" target="d53dWlJOmNv4el6tiKO4-4">
          <mxGeometry relative="1" as="geometry">
            <Array as="points">
              <mxPoint x="180" y="105" />
              <mxPoint x="180" y="220" />
            </Array>
          </mxGeometry>
        </mxCell>
        <mxCell id="d53dWlJOmNv4el6tiKO4-46" style="edgeStyle=orthogonalEdgeStyle;rounded=0;orthogonalLoop=1;jettySize=auto;html=1;exitX=1;exitY=0.25;exitDx=0;exitDy=0;entryX=0;entryY=0.25;entryDx=0;entryDy=0;" edge="1" parent="1" source="d53dWlJOmNv4el6tiKO4-14" target="d53dWlJOmNv4el6tiKO4-45">
          <mxGeometry relative="1" as="geometry" />
        </mxCell>
        <mxCell id="d53dWlJOmNv4el6tiKO4-14" value="DASHBOARD" style="rounded=1;whiteSpace=wrap;html=1;absoluteArcSize=1;arcSize=14;strokeWidth=2;" vertex="1" parent="1">
          <mxGeometry x="50" y="320" width="130" height="50" as="geometry" />
        </mxCell>
        <mxCell id="d53dWlJOmNv4el6tiKO4-15" style="edgeStyle=orthogonalEdgeStyle;rounded=0;orthogonalLoop=1;jettySize=auto;html=1;exitX=0.5;exitY=1;exitDx=0;exitDy=0;exitPerimeter=0;entryX=0.5;entryY=0;entryDx=0;entryDy=0;" edge="1" parent="1" source="d53dWlJOmNv4el6tiKO4-16" target="d53dWlJOmNv4el6tiKO4-17">
          <mxGeometry relative="1" as="geometry" />
        </mxCell>
        <mxCell id="d53dWlJOmNv4el6tiKO4-16" value="NOTIFICA&lt;div&gt;DOCUMENTO&lt;/div&gt;" style="strokeWidth=2;html=1;shape=mxgraph.flowchart.start_2;whiteSpace=wrap;" vertex="1" parent="1">
          <mxGeometry x="65" y="430" width="100" height="100" as="geometry" />
        </mxCell>
        <mxCell id="d53dWlJOmNv4el6tiKO4-55" style="edgeStyle=orthogonalEdgeStyle;rounded=0;orthogonalLoop=1;jettySize=auto;html=1;exitX=0.5;exitY=1;exitDx=0;exitDy=0;" edge="1" parent="1" source="d53dWlJOmNv4el6tiKO4-17" target="d53dWlJOmNv4el6tiKO4-54">
          <mxGeometry relative="1" as="geometry" />
        </mxCell>
        <mxCell id="d53dWlJOmNv4el6tiKO4-17" value="CENTRO&lt;div&gt;&lt;div&gt;&lt;div&gt;NOTIFICACIONES&lt;/div&gt;&lt;/div&gt;&lt;/div&gt;" style="rounded=1;whiteSpace=wrap;html=1;absoluteArcSize=1;arcSize=14;strokeWidth=2;" vertex="1" parent="1">
          <mxGeometry x="50" y="590" width="130" height="50" as="geometry" />
        </mxCell>
        <mxCell id="d53dWlJOmNv4el6tiKO4-18" style="edgeStyle=orthogonalEdgeStyle;rounded=0;orthogonalLoop=1;jettySize=auto;html=1;exitX=0.5;exitY=1;exitDx=0;exitDy=0;entryX=0.5;entryY=0;entryDx=0;entryDy=0;entryPerimeter=0;" edge="1" parent="1" source="d53dWlJOmNv4el6tiKO4-14" target="d53dWlJOmNv4el6tiKO4-16">
          <mxGeometry relative="1" as="geometry" />
        </mxCell>
        <mxCell id="d53dWlJOmNv4el6tiKO4-19" value="MUESTRA NOTIFICACIONES" style="strokeWidth=2;html=1;shape=mxgraph.flowchart.start_2;whiteSpace=wrap;" vertex="1" parent="1">
          <mxGeometry x="110" y="720" width="100" height="90" as="geometry" />
        </mxCell>
        <mxCell id="d53dWlJOmNv4el6tiKO4-20" style="edgeStyle=orthogonalEdgeStyle;rounded=0;orthogonalLoop=1;jettySize=auto;html=1;exitX=0.5;exitY=1;exitDx=0;exitDy=0;entryX=0.5;entryY=0;entryDx=0;entryDy=0;entryPerimeter=0;" edge="1" parent="1" source="d53dWlJOmNv4el6tiKO4-17" target="d53dWlJOmNv4el6tiKO4-19">
          <mxGeometry relative="1" as="geometry" />
        </mxCell>
        <mxCell id="d53dWlJOmNv4el6tiKO4-21" style="edgeStyle=orthogonalEdgeStyle;rounded=0;orthogonalLoop=1;jettySize=auto;html=1;exitX=0.5;exitY=1;exitDx=0;exitDy=0;exitPerimeter=0;entryX=0.5;entryY=0;entryDx=0;entryDy=0;" edge="1" parent="1" source="d53dWlJOmNv4el6tiKO4-22" target="d53dWlJOmNv4el6tiKO4-23">
          <mxGeometry relative="1" as="geometry" />
        </mxCell>
        <mxCell id="d53dWlJOmNv4el6tiKO4-22" value="MUESTRA&lt;div&gt;INCIDENCIAS&lt;/div&gt;" style="strokeWidth=2;html=1;shape=mxgraph.flowchart.start_2;whiteSpace=wrap;" vertex="1" parent="1">
          <mxGeometry x="240" y="420" width="100" height="100" as="geometry" />
        </mxCell>
        <mxCell id="d53dWlJOmNv4el6tiKO4-23" value="DETALLA&amp;nbsp;&lt;div&gt;INCIDENCIA&lt;/div&gt;" style="rounded=1;whiteSpace=wrap;html=1;absoluteArcSize=1;arcSize=14;strokeWidth=2;" vertex="1" parent="1">
          <mxGeometry x="225" y="590" width="130" height="50" as="geometry" />
        </mxCell>
        <mxCell id="d53dWlJOmNv4el6tiKO4-24" style="edgeStyle=orthogonalEdgeStyle;rounded=0;orthogonalLoop=1;jettySize=auto;html=1;exitX=1;exitY=0.5;exitDx=0;exitDy=0;entryX=0;entryY=0.5;entryDx=0;entryDy=0;entryPerimeter=0;" edge="1" parent="1" source="d53dWlJOmNv4el6tiKO4-14" target="d53dWlJOmNv4el6tiKO4-22">
          <mxGeometry relative="1" as="geometry" />
        </mxCell>
        <mxCell id="d53dWlJOmNv4el6tiKO4-25" style="edgeStyle=orthogonalEdgeStyle;rounded=0;orthogonalLoop=1;jettySize=auto;html=1;exitX=0.5;exitY=1;exitDx=0;exitDy=0;exitPerimeter=0;entryX=0.5;entryY=0;entryDx=0;entryDy=0;" edge="1" parent="1" source="d53dWlJOmNv4el6tiKO4-26" target="d53dWlJOmNv4el6tiKO4-28">
          <mxGeometry relative="1" as="geometry" />
        </mxCell>
        <mxCell id="d53dWlJOmNv4el6tiKO4-26" value="MUESTRA EL DETALLE PARA DAR SOLUCION" style="strokeWidth=2;html=1;shape=mxgraph.flowchart.start_2;whiteSpace=wrap;" vertex="1" parent="1">
          <mxGeometry x="235" y="690" width="110" height="110" as="geometry" />
        </mxCell>
        <mxCell id="d53dWlJOmNv4el6tiKO4-27" style="edgeStyle=orthogonalEdgeStyle;rounded=0;orthogonalLoop=1;jettySize=auto;html=1;exitX=0.5;exitY=1;exitDx=0;exitDy=0;entryX=0.5;entryY=0;entryDx=0;entryDy=0;entryPerimeter=0;" edge="1" parent="1" source="d53dWlJOmNv4el6tiKO4-23" target="d53dWlJOmNv4el6tiKO4-26">
          <mxGeometry relative="1" as="geometry" />
        </mxCell>
        <mxCell id="d53dWlJOmNv4el6tiKO4-50" style="edgeStyle=orthogonalEdgeStyle;rounded=0;orthogonalLoop=1;jettySize=auto;html=1;exitX=1;exitY=0.5;exitDx=0;exitDy=0;" edge="1" parent="1" source="d53dWlJOmNv4el6tiKO4-28" target="d53dWlJOmNv4el6tiKO4-49">
          <mxGeometry relative="1" as="geometry" />
        </mxCell>
        <mxCell id="d53dWlJOmNv4el6tiKO4-28" value="CHAT CLIENTE O CORREO" style="rounded=1;whiteSpace=wrap;html=1;absoluteArcSize=1;arcSize=14;strokeWidth=2;" vertex="1" parent="1">
          <mxGeometry x="225" y="840" width="130" height="50" as="geometry" />
        </mxCell>
        <mxCell id="d53dWlJOmNv4el6tiKO4-29" value="SE MANDA SOLUCION AL CLIENTE" style="strokeWidth=2;html=1;shape=mxgraph.flowchart.start_2;whiteSpace=wrap;" vertex="1" parent="1">
          <mxGeometry x="240" y="950" width="100" height="100" as="geometry" />
        </mxCell>
        <mxCell id="d53dWlJOmNv4el6tiKO4-30" style="edgeStyle=orthogonalEdgeStyle;rounded=0;orthogonalLoop=1;jettySize=auto;html=1;exitX=0.5;exitY=1;exitDx=0;exitDy=0;entryX=0.5;entryY=0;entryDx=0;entryDy=0;entryPerimeter=0;" edge="1" parent="1" source="d53dWlJOmNv4el6tiKO4-28" target="d53dWlJOmNv4el6tiKO4-29">
          <mxGeometry relative="1" as="geometry" />
        </mxCell>
        <mxCell id="d53dWlJOmNv4el6tiKO4-53" style="edgeStyle=orthogonalEdgeStyle;rounded=0;orthogonalLoop=1;jettySize=auto;html=1;exitX=0.5;exitY=1;exitDx=0;exitDy=0;entryX=0.5;entryY=0;entryDx=0;entryDy=0;" edge="1" parent="1" source="d53dWlJOmNv4el6tiKO4-31" target="d53dWlJOmNv4el6tiKO4-47">
          <mxGeometry relative="1" as="geometry" />
        </mxCell>
        <mxCell id="d53dWlJOmNv4el6tiKO4-31" value="SE CREA REPORTE" style="rounded=1;whiteSpace=wrap;html=1;absoluteArcSize=1;arcSize=14;strokeWidth=2;" vertex="1" parent="1">
          <mxGeometry x="510" y="420" width="130" height="50" as="geometry" />
        </mxCell>
        <mxCell id="d53dWlJOmNv4el6tiKO4-32" value="DETALLA REPORTE PARA ENVIAR" style="strokeWidth=2;html=1;shape=mxgraph.flowchart.start_2;whiteSpace=wrap;" vertex="1" parent="1">
          <mxGeometry x="685" y="570" width="110" height="95" as="geometry" />
        </mxCell>
        <mxCell id="d53dWlJOmNv4el6tiKO4-34" style="edgeStyle=orthogonalEdgeStyle;rounded=0;orthogonalLoop=1;jettySize=auto;html=1;exitX=0.5;exitY=1;exitDx=0;exitDy=0;exitPerimeter=0;entryX=0.5;entryY=0;entryDx=0;entryDy=0;" edge="1" parent="1" source="d53dWlJOmNv4el6tiKO4-35" target="d53dWlJOmNv4el6tiKO4-37">
          <mxGeometry relative="1" as="geometry" />
        </mxCell>
        <mxCell id="d53dWlJOmNv4el6tiKO4-35" value="LA CONSULTA SOLUCION" style="strokeWidth=2;html=1;shape=mxgraph.flowchart.start_2;whiteSpace=wrap;" vertex="1" parent="1">
          <mxGeometry x="810" y="170" width="100" height="100" as="geometry" />
        </mxCell>
        <mxCell id="d53dWlJOmNv4el6tiKO4-36" style="edgeStyle=orthogonalEdgeStyle;rounded=0;orthogonalLoop=1;jettySize=auto;html=1;exitX=1;exitY=0.5;exitDx=0;exitDy=0;entryX=0.5;entryY=0;entryDx=0;entryDy=0;entryPerimeter=0;" edge="1" parent="1" source="d53dWlJOmNv4el6tiKO4-6" target="d53dWlJOmNv4el6tiKO4-35">
          <mxGeometry relative="1" as="geometry" />
        </mxCell>
        <mxCell id="d53dWlJOmNv4el6tiKO4-57" style="edgeStyle=orthogonalEdgeStyle;rounded=0;orthogonalLoop=1;jettySize=auto;html=1;exitX=1;exitY=0.5;exitDx=0;exitDy=0;entryX=0;entryY=0.5;entryDx=0;entryDy=0;" edge="1" parent="1" source="d53dWlJOmNv4el6tiKO4-37" target="d53dWlJOmNv4el6tiKO4-56">
          <mxGeometry relative="1" as="geometry" />
        </mxCell>
        <mxCell id="d53dWlJOmNv4el6tiKO4-37" value="CHAT" style="rounded=1;whiteSpace=wrap;html=1;absoluteArcSize=1;arcSize=14;strokeWidth=2;" vertex="1" parent="1">
          <mxGeometry x="795" y="310" width="130" height="50" as="geometry" />
        </mxCell>
        <mxCell id="d53dWlJOmNv4el6tiKO4-38" style="edgeStyle=orthogonalEdgeStyle;rounded=0;orthogonalLoop=1;jettySize=auto;html=1;exitX=0;exitY=0.5;exitDx=0;exitDy=0;exitPerimeter=0;entryX=1;entryY=0.5;entryDx=0;entryDy=0;entryPerimeter=0;" edge="1" parent="1" source="d53dWlJOmNv4el6tiKO4-8" target="d53dWlJOmNv4el6tiKO4-4">
          <mxGeometry relative="1" as="geometry" />
        </mxCell>
        <mxCell id="d53dWlJOmNv4el6tiKO4-39" style="edgeStyle=orthogonalEdgeStyle;rounded=0;orthogonalLoop=1;jettySize=auto;html=1;exitX=0.855;exitY=0.855;exitDx=0;exitDy=0;exitPerimeter=0;entryX=0.145;entryY=0.145;entryDx=0;entryDy=0;entryPerimeter=0;" edge="1" parent="1" source="d53dWlJOmNv4el6tiKO4-4" target="d53dWlJOmNv4el6tiKO4-8">
          <mxGeometry relative="1" as="geometry">
            <Array as="points">
              <mxPoint x="340" y="256" />
              <mxPoint x="340" y="200" />
              <mxPoint x="450" y="200" />
              <mxPoint x="450" y="195" />
            </Array>
          </mxGeometry>
        </mxCell>
        <mxCell id="d53dWlJOmNv4el6tiKO4-40" value="MUESTRA UN CHAT PARA DAR SOLUCION" style="strokeWidth=2;html=1;shape=mxgraph.flowchart.start_2;whiteSpace=wrap;" vertex="1" parent="1">
          <mxGeometry x="810" y="420" width="100" height="100" as="geometry" />
        </mxCell>
        <mxCell id="d53dWlJOmNv4el6tiKO4-41" style="edgeStyle=orthogonalEdgeStyle;rounded=0;orthogonalLoop=1;jettySize=auto;html=1;exitX=0.5;exitY=1;exitDx=0;exitDy=0;entryX=0.5;entryY=0;entryDx=0;entryDy=0;entryPerimeter=0;" edge="1" parent="1" source="d53dWlJOmNv4el6tiKO4-37" target="d53dWlJOmNv4el6tiKO4-40">
          <mxGeometry relative="1" as="geometry" />
        </mxCell>
        <mxCell id="d53dWlJOmNv4el6tiKO4-42" value="&lt;font style=&quot;font-size: 29px;&quot;&gt;DIAGRAMA NIVEL 2&lt;/font&gt;" style="text;html=1;align=center;verticalAlign=middle;whiteSpace=wrap;rounded=0;" vertex="1" parent="1">
          <mxGeometry x="350" y="-120" width="440" height="110" as="geometry" />
        </mxCell>
        <mxCell id="d53dWlJOmNv4el6tiKO4-43" value="SOLO SE REPORTA MEDICAMENTO CON FALTA DE EXISTENCIA A PARTIR DE 10 PZAS., EL REPORTE SE GENERARA SOLO." style="rounded=1;whiteSpace=wrap;html=1;absoluteArcSize=1;arcSize=14;strokeWidth=2;" vertex="1" parent="1">
          <mxGeometry x="790" y="35" width="240" height="60" as="geometry" />
        </mxCell>
        <mxCell id="d53dWlJOmNv4el6tiKO4-45" value="FILTRA LAS INCIDENCIAS POR ACTIVAS PENDIENTES Y CERRADAS;LOS FILTROS PARA CADA SECCION SERAN URGENTE PARA AGENDA Y CRITICO PARA MEDICAMENTOS" style="rounded=1;whiteSpace=wrap;html=1;absoluteArcSize=1;arcSize=14;strokeWidth=2;" vertex="1" parent="1">
          <mxGeometry x="240" y="290" width="190" height="100" as="geometry" />
        </mxCell>
        <mxCell id="d53dWlJOmNv4el6tiKO4-47" value="SOLO PUEDE CREAR REPORTES CON LAS CONDICIONES: SI NO HA CREADO UNO CON ESE CORREO, NOMBRE Y NUMERO&amp;nbsp; DE TELEFONO Y MOTIVO." style="rounded=1;whiteSpace=wrap;html=1;absoluteArcSize=1;arcSize=14;strokeWidth=2;" vertex="1" parent="1">
          <mxGeometry x="400" y="570" width="205" height="95" as="geometry" />
        </mxCell>
        <mxCell id="d53dWlJOmNv4el6tiKO4-49" value="SOLO SE PUEDE ENTRAR SI SE TIENE ACTIVA, EN CASO QUE NO MOSTRARA ALERTA PARA CAMBIAR A ACTIVA." style="rounded=1;whiteSpace=wrap;html=1;absoluteArcSize=1;arcSize=14;strokeWidth=2;" vertex="1" parent="1">
          <mxGeometry x="440" y="835" width="170" height="60" as="geometry" />
        </mxCell>
        <mxCell id="d53dWlJOmNv4el6tiKO4-52" style="edgeStyle=orthogonalEdgeStyle;rounded=0;orthogonalLoop=1;jettySize=auto;html=1;exitX=0.5;exitY=1;exitDx=0;exitDy=0;entryX=0.5;entryY=0;entryDx=0;entryDy=0;entryPerimeter=0;" edge="1" parent="1" source="d53dWlJOmNv4el6tiKO4-31" target="d53dWlJOmNv4el6tiKO4-32">
          <mxGeometry relative="1" as="geometry" />
        </mxCell>
        <mxCell id="d53dWlJOmNv4el6tiKO4-54" value="SOLO MUESTRA LOS MEDICAMENTOS CON 10 O MENOS DE EXISTENCIA" style="rounded=1;whiteSpace=wrap;html=1;absoluteArcSize=1;arcSize=14;strokeWidth=2;" vertex="1" parent="1">
          <mxGeometry x="-80" y="720" width="150" height="80" as="geometry" />
        </mxCell>
        <mxCell id="d53dWlJOmNv4el6tiKO4-56" value="SOLO SE PUEDE ENTRAR SI UN REPORTE CUENTA CON NUMERO DE FOLIO Y SI ESTA COMO ACTIVA O PENDIENTE , EN CASO DE ESTAR CERRADA MOSTRAR UNA ALERTA DE QUE YA FUE SOLUCIONADO." style="rounded=1;whiteSpace=wrap;html=1;absoluteArcSize=1;arcSize=14;strokeWidth=2;" vertex="1" parent="1">
          <mxGeometry x="1010" y="280" width="210" height="110" as="geometry" />
        </mxCell>
      </root>
    </mxGraphModel>
  </diagram>
</mxfile>
